<?xml version="1.0" encoding="UTF-8" standalone="no"?><!DOCTYPE svg PUBLIC "-//W3C//DTD SVG 1.1//EN" "http://www.w3.org/Graphics/SVG/1.1/DTD/svg11.dtd"><svg width="100%" height="100%" viewBox="0 0 100 100" version="1.1" xmlns="http://www.w3.org/2000/svg" xmlns:xlink="http://www.w3.org/1999/xlink" xml:space="preserve" xmlns:serif="http://www.serif.com/" style="fill-rule:evenodd;clip-rule:evenodd;stroke-linecap:round;stroke-miterlimit:1;"><g id="Icon-Style" serif:id="Icon Style"><path d="M50,89.389l-25.781,-0c-4.493,-0 -8.141,-3.379 -8.141,-7.542l-0,-63.518c-0,-4.162 3.648,-7.541 8.141,-7.541l51.562,-0c4.493,-0 8.141,3.379 8.141,7.541l0,31.678" style="fill:none;stroke:url(#_Linear1);stroke-width:5px;"/><path d="M76.597,57.603l0.347,1.196c0.696,0.233 1.374,0.514 2.028,0.84l2.501,-1.371l1.287,0.959c1.411,1.05 2.661,2.301 3.711,3.711l0.959,1.287l-1.371,2.5c0.327,0.656 0.608,1.334 0.84,2.027l2.737,0.8l0.233,1.588c0.254,1.74 0.254,3.508 -0,5.248l-0.233,1.588l-2.737,0.798c-0.232,0.695 -0.513,1.373 -0.839,2.027l1.37,2.501l-0.959,1.288c-1.05,1.41 -2.3,2.66 -3.711,3.711l-1.287,0.958l-2.499,-1.371c-0.656,0.327 -1.334,0.608 -2.028,0.84l-0.799,2.738l-1.588,0.232c-1.74,0.255 -3.509,0.255 -5.249,-0l-1.588,-0.232l-0.797,-2.737c-0.695,-0.233 -1.373,-0.514 -2.028,-0.84l-2.501,1.37l-1.287,-0.958c-1.411,-1.051 -2.661,-2.301 -3.711,-3.711l-0.959,-1.288l1.371,-2.499c-0.327,-0.656 -0.608,-1.334 -0.84,-2.027l-2.737,-0.8l-0.232,-1.588c-0.255,-1.74 -0.255,-3.508 -0,-5.248l0.232,-1.588l2.737,-0.798c0.232,-0.695 0.513,-1.373 0.839,-2.028l-1.37,-2.501l0.959,-1.287c1.05,-1.41 2.3,-2.661 3.711,-3.711l1.287,-0.959l2.499,1.372c0.656,-0.327 1.334,-0.608 2.028,-0.84l0.799,-2.738l1.588,-0.232c1.74,-0.255 3.509,-0.255 5.249,-0l1.588,0.232l0.45,1.541Zm-4.322,3.04c-0.227,-0.006 -0.454,-0.006 -0.682,0l-0.668,2.288l-1.425,0.33c-1.157,0.268 -2.263,0.726 -3.271,1.355l-1.241,0.774l-2.09,-1.145c-0.165,0.157 -0.326,0.317 -0.482,0.483l1.145,2.089l-0.774,1.242c-0.629,1.008 -1.087,2.113 -1.355,3.27l-0.331,1.426l-2.287,0.668c-0.006,0.227 -0.006,0.454 0,0.682l2.287,0.668l0.331,1.425c0.268,1.158 0.726,2.263 1.355,3.271l0.774,1.241l-1.145,2.091c0.156,0.164 0.317,0.325 0.482,0.482l2.09,-1.145l1.241,0.774c1.008,0.629 2.114,1.086 3.271,1.355l1.425,0.33l0.669,2.287c0.227,0.006 0.454,0.006 0.682,0l0.668,-2.287l1.425,-0.33c1.157,-0.269 2.263,-0.726 3.271,-1.355l1.241,-0.774l2.09,1.145c0.165,-0.157 0.326,-0.318 0.482,-0.483l-1.145,-2.09l0.775,-1.241c0.628,-1.008 1.086,-2.113 1.354,-3.271l0.331,-1.425l2.287,-0.668c0.006,-0.227 0.006,-0.455 0,-0.682l-2.287,-0.668l-0.331,-1.426c-0.268,-1.157 -0.726,-2.262 -1.354,-3.27l-0.775,-1.242l1.145,-2.09c-0.156,-0.165 -0.317,-0.325 -0.482,-0.482l-2.09,1.145l-1.241,-0.774c-1.008,-0.629 -2.114,-1.087 -3.271,-1.355l-1.425,-0.33l-0.669,-2.288Zm-0.34,7.496c3.104,-0 5.625,2.52 5.625,5.625c-0,3.104 -2.521,5.625 -5.625,5.625c-3.105,-0 -5.625,-2.521 -5.625,-5.625c-0,-3.105 2.52,-5.625 5.625,-5.625Zm-0,5c-0.345,-0 -0.625,0.28 -0.625,0.625c-0,0.345 0.28,0.625 0.625,0.625c0.344,-0 0.625,-0.28 0.625,-0.625c-0,-0.345 -0.281,-0.625 -0.625,-0.625Z" style="fill:url(#_Linear2);"/><g id="Dark"><path d="M28.81,50l25,0" style="fill:none;stroke:#fff;stroke-width:6.5px;"/><path d="M28.81,28.125l40.625,0" style="fill:none;stroke:#fff;stroke-width:6.67px;"/></g></g><defs><linearGradient id="_Linear1" x1="0" y1="0" x2="1" y2="0" gradientUnits="userSpaceOnUse" gradientTransform="matrix(67.8445,0,0,78.6011,16.0777,50.0883)"><stop offset="0" style="stop-color:#5c44e4;stop-opacity:1"/><stop offset="0.48" style="stop-color:#863ea8;stop-opacity:1"/><stop offset="1" style="stop-color:#fa2c04;stop-opacity:1"/></linearGradient><linearGradient id="_Linear2" x1="0" y1="0" x2="1" y2="0" gradientUnits="userSpaceOnUse" gradientTransform="matrix(31.25,0,0,31.25,56.3095,73.7639)"><stop offset="0" style="stop-color:#5c44e4;stop-opacity:1"/><stop offset="1" style="stop-color:#fa2c04;stop-opacity:1"/></linearGradient></defs></svg>